<svg width="705" height="169" viewBox="0 0 705 169" fill="none" xmlns="http://www.w3.org/2000/svg">
<path d="M134.61 0H172.521C174.281 0 175.801 0.640001 177.08 1.92C178.36 3.20001 179 4.72001 179 6.48V161.52C179 163.28 178.36 164.8 177.08 166.08C175.801 167.36 174.281 168 172.521 168H129.091C127.332 168 125.812 167.36 124.532 166.08C123.252 164.8 122.613 163.28 122.613 161.52V95.76L106.776 121.68C104.217 125.68 101.257 127.68 97.8981 127.68H81.1019C77.7426 127.68 74.7833 125.68 72.2239 121.68L56.3874 95.76V161.52C56.3874 163.28 55.7475 164.8 54.4678 166.08C53.1881 167.36 51.6684 168 49.9088 168H6.47855C4.71894 168 3.19928 167.36 1.91957 166.08C0.639857 164.8 0 163.28 0 161.52V6.48C0 4.72001 0.639857 3.20001 1.91957 1.92C3.19928 0.640001 4.71894 0 6.47855 0H44.3901C48.8691 0 52.3083 2.16 54.7078 6.48L89.5 64.08L124.292 6.48C126.692 2.16 130.131 0 134.61 0Z" fill="#FFDA31"/>
<path d="M307.14 0.263672C325.061 0.263672 334.022 0.263359 340.867 3.75098C346.888 6.81884 351.784 11.7144 354.852 17.7354C358.339 24.5805 358.34 33.5422 358.34 51.4639V117.254C358.34 135.176 358.339 144.137 354.852 150.982C351.784 157.003 346.888 161.899 340.867 164.967C334.022 168.454 325.061 168.454 307.14 168.454H241.349C223.427 168.454 214.466 168.455 207.621 164.967C201.6 161.899 196.705 157.003 193.637 150.982C190.149 144.137 190.149 135.176 190.149 117.254V51.4639C190.149 33.5422 190.149 24.5805 193.637 17.7354C196.705 11.7143 201.6 6.81887 207.621 3.75098C214.466 0.263204 223.427 0.263672 241.349 0.263672H307.14ZM301.984 31.5654C289.787 31.5655 279.829 38.4269 274.203 48.9668C268.627 38.4765 258.67 31.5654 246.422 31.5654C226.457 31.5656 211.173 47.3761 211.173 69.5498C211.173 96.5459 234.374 122.995 270.021 145.915C271.266 146.71 273.008 147.506 274.203 147.506C275.448 147.506 277.191 146.71 278.436 145.915C314.033 122.995 337.234 96.5459 337.234 69.5498C337.234 47.376 321.949 31.5654 301.984 31.5654Z" fill="#FFDA31"/>
<path d="M486.544 0.263672C504.465 0.263672 513.426 0.263206 520.271 3.75098C526.293 6.81888 531.188 11.7143 534.256 17.7354C537.744 24.5805 537.743 33.5422 537.743 51.4639V117.254C537.743 135.176 537.744 144.137 534.256 150.982C531.188 157.003 526.293 161.899 520.271 164.967C513.426 168.455 504.465 168.454 486.544 168.454H420.753C402.832 168.454 393.871 168.454 387.025 164.967C381.004 161.899 376.108 157.004 373.04 150.982C369.552 144.137 369.553 135.176 369.553 117.254V51.4639C369.553 33.5422 369.552 24.5805 373.04 17.7354C376.108 11.7142 381.004 6.81891 387.025 3.75098C393.871 0.263378 402.832 0.263672 420.753 0.263672H486.544ZM453.479 25.0254C420.64 25.0254 393.847 51.7582 393.847 84.5693C393.847 117.335 420.64 144.068 453.479 144.068C486.363 144.068 513.156 117.335 513.156 84.5693C513.156 51.7583 486.363 25.0256 453.479 25.0254ZM471.89 100.93C472.989 100.381 474.271 100.93 474.271 102.209C474.271 106.048 465.845 114.411 453.479 114.411C441.067 114.411 432.686 106.048 432.686 102.209C432.686 100.93 433.967 100.382 435.021 100.93C439.28 103.489 444.731 106.321 453.479 106.321C462.226 106.321 467.722 103.534 471.89 100.93ZM435.479 62.8633C439.188 62.8633 442.394 66.2902 442.395 70.9512C442.395 75.5668 439.143 78.9482 435.479 78.9482C431.815 78.948 428.609 75.5666 428.609 70.9512C428.61 66.2904 431.769 62.8636 435.479 62.8633ZM471.478 62.8633C475.188 62.8633 478.393 66.2902 478.394 70.9512C478.394 75.5668 475.188 78.9482 471.478 78.9482C467.859 78.9481 464.607 75.5667 464.607 70.9512C464.608 66.2902 467.814 62.8634 471.478 62.8633Z" fill="#FFDA31"/>
<path d="M555.48 0H624.6C647.96 0 667.16 5.84 682.2 17.52C697.4 29.04 705 45.2 705 66V101.76C705 123.52 697.64 140 682.92 151.2C668.2 162.4 648.84 168 624.84 168H555.48C553.72 168 552.2 167.36 550.92 166.08C549.64 164.8 549 163.28 549 161.52V6.48C549 4.72001 549.64 3.20001 550.92 1.92C552.2 0.640001 553.72 0 555.48 0ZM609 46.8V121.2H624.6C630.04 121.2 634.36 119.6 637.56 116.4C640.92 113.04 642.6 108.16 642.6 101.76V66C642.6 53.2 636.6 46.8 624.6 46.8H609Z" fill="#FFDA31"/>
</svg>
